<?xml version="1.0" standalone="no"?><!DOCTYPE svg PUBLIC "-//W3C//DTD SVG 1.1//EN" "http://www.w3.org/Graphics/SVG/1.1/DTD/svg11.dtd"><svg t="1728626701876" class="icon" viewBox="0 0 1024 1024" version="1.1" xmlns="http://www.w3.org/2000/svg" p-id="7877" xmlns:xlink="http://www.w3.org/1999/xlink" width="200" height="200"><path d="M554.666667 221.866667h-174.250667v580.266666H716.8a85.333333 85.333333 0 0 0 85.333333-85.333333V307.2c0-38.229333-25.122133-70.5536-59.733333-81.442133V409.6a25.6 25.6 0 0 1-43.690667 18.090667L648.533333 377.514667l-50.176 50.176a25.6 25.6 0 0 1-43.690666-18.090667V221.866667z m-225.450667 0H307.2A85.333333 85.333333 0 0 0 221.866667 307.2v409.6A85.333333 85.333333 0 0 0 307.2 802.133333h22.016v-580.266666zM307.2 170.666667h409.6a136.533333 136.533333 0 0 1 136.533333 136.533333v409.6a136.533333 136.533333 0 0 1-136.533333 136.533333H307.2a136.533333 136.533333 0 0 1-136.533333-136.533333V307.2a136.533333 136.533333 0 0 1 136.533333-136.533333z m298.666667 59.733333v117.418667l24.576-24.576a25.6 25.6 0 0 1 36.181333 0l24.576 24.576V230.4h-85.333333z" fill="#f4ea2a" p-id="7878"></path></svg>