<?xml version="1.0" standalone="no"?><!DOCTYPE svg PUBLIC "-//W3C//DTD SVG 1.1//EN" "http://www.w3.org/Graphics/SVG/1.1/DTD/svg11.dtd"><svg t="1728626467415" class="icon" viewBox="0 0 1024 1024" version="1.1" xmlns="http://www.w3.org/2000/svg" p-id="2602" xmlns:xlink="http://www.w3.org/1999/xlink" width="200" height="200"><path d="M640 910.336V197.12a153.6 153.6 0 0 1-22.9888-5.7344L384 113.664v713.216a153.6 153.6 0 0 1 22.9888 5.6832L640 910.336z m51.2 0l195.3792-65.1776a51.2 51.2 0 0 0 35.0208-48.5888V122.2656l-207.4112 69.12a153.6 153.6 0 0 1-22.9888 5.7344v713.216z m-358.4-83.456V113.664L137.4208 178.8928A51.2 51.2 0 0 0 102.4 227.4304v674.304l207.4112-69.12a153.6 153.6 0 0 1 22.9888-5.7344zM121.2416 130.2528l204.8-68.2496a102.4 102.4 0 0 1 64.7168 0l242.4832 80.7936a102.4 102.4 0 0 0 64.7168 0l207.4624-69.12A51.2 51.2 0 0 1 972.8 122.2144v674.3552a102.4 102.4 0 0 1-70.0416 97.1776l-204.8 68.2496a102.4 102.4 0 0 1-64.7168 0l-242.4832-80.7936a102.4 102.4 0 0 0-64.7168 0l-207.4624 69.12A51.2 51.2 0 0 1 51.2 901.7856V227.4304a102.4 102.4 0 0 1 70.0416-97.1776z" fill="#1296db" p-id="2603"></path></svg>