<?xml version="1.0" standalone="no"?><!DOCTYPE svg PUBLIC "-//W3C//DTD SVG 1.1//EN" "http://www.w3.org/Graphics/SVG/1.1/DTD/svg11.dtd"><svg t="1728626647600" class="icon" viewBox="0 0 1024 1024" version="1.1" xmlns="http://www.w3.org/2000/svg" p-id="5867" xmlns:xlink="http://www.w3.org/1999/xlink" width="200" height="200"><path d="M512 546.133333c-123.733333 0-221.866667-102.4-221.866667-221.866666S388.266667 98.133333 512 98.133333c123.733333 0 221.866667 102.4 221.866667 221.866667s-98.133333 226.133333-221.866667 226.133333z m0-384c-89.6 0-162.133333 72.533333-162.133333 162.133334s72.533333 157.866667 162.133333 157.866666c89.6 0 162.133333-72.533333 162.133333-162.133333S601.6 162.133333 512 162.133333z" fill="#1afa29" p-id="5868"></path><path d="M853.333333 887.466667c-17.066667 0-34.133333-12.8-34.133333-34.133334 0-170.666667-140.8-307.2-307.2-307.2-170.666667 0-307.2 136.533333-307.2 307.2 0 17.066667-12.8 34.133333-34.133333 34.133334s-34.133333-12.8-34.133334-34.133334c0-204.8 166.4-371.2 375.466667-371.2 204.8 0 375.466667 166.4 375.466667 371.2 0 17.066667-17.066667 34.133333-34.133334 34.133334zM768 503.466667c-17.066667 0-34.133333-12.8-34.133333-34.133334s17.066667-29.866667 34.133333-29.866666c51.2 0 93.866667-42.666667 93.866667-93.866667s-42.666667-98.133333-93.866667-98.133333c-17.066667 0-34.133333-12.8-34.133333-34.133334s17.066667-29.866667 34.133333-29.866666c89.6 0 162.133333 72.533333 162.133333 162.133333s-72.533333 157.866667-162.133333 157.866667z" fill="#1afa29" p-id="5869"></path><path d="M768 503.466667c-17.066667 0-34.133333-12.8-34.133333-34.133334s17.066667-29.866667 34.133333-29.866666c51.2 0 93.866667-42.666667 93.866667-93.866667s-42.666667-98.133333-93.866667-98.133333c-17.066667 0-34.133333-12.8-34.133333-34.133334s17.066667-29.866667 34.133333-29.866666c89.6 0 162.133333 72.533333 162.133333 162.133333s-72.533333 157.866667-162.133333 157.866667z" fill="#1afa29" p-id="5870"></path><path d="M981.333333 716.8c-17.066667 0-34.133333-12.8-34.133333-34.133333 0-98.133333-81.066667-179.2-179.2-179.2-17.066667 0-34.133333-12.8-34.133333-34.133334s17.066667-29.866667 34.133333-29.866666c136.533333 0 247.466667 110.933333 247.466667 247.466666 0 12.8-17.066667 29.866667-34.133334 29.866667z" fill="#1afa29" p-id="5871"></path><path d="M256 503.466667c-89.6 0-162.133333-72.533333-162.133333-162.133334S166.4 183.466667 256 183.466667c17.066667 0 34.133333 12.8 34.133333 34.133333s-17.066667 29.866667-34.133333 29.866667c-51.2 0-93.866667 42.666667-93.866667 93.866666s42.666667 98.133333 93.866667 98.133334c17.066667 0 34.133333 12.8 34.133333 34.133333s-17.066667 29.866667-34.133333 29.866667z" fill="#1afa29" p-id="5872"></path><path d="M256 503.466667c-89.6 0-162.133333-72.533333-162.133333-162.133334S166.4 183.466667 256 183.466667c17.066667 0 34.133333 12.8 34.133333 34.133333s-17.066667 29.866667-34.133333 29.866667c-51.2 0-93.866667 42.666667-93.866667 93.866666s42.666667 98.133333 93.866667 98.133334c17.066667 0 34.133333 12.8 34.133333 34.133333s-17.066667 29.866667-34.133333 29.866667z" fill="#1afa29" p-id="5873"></path><path d="M42.666667 716.8c-17.066667 0-34.133333-12.8-34.133334-34.133333 0-136.533333 110.933333-247.466667 247.466667-247.466667 17.066667 0 34.133333 12.8 34.133333 34.133333s-17.066667 34.133333-34.133333 34.133334c-98.133333 0-179.2 81.066667-179.2 179.2 0 17.066667-17.066667 34.133333-34.133333 34.133333z" fill="#1afa29" p-id="5874"></path></svg>