<svg viewBox="0 0 250 250" height="500" width="550">
  <!-- 定义蒙版 -->
  <mask id="morphingMask">
    <path id="path1"
      d="M393.8,443.67C393.8,443.67,388.88,444.957,386.557,445.924C384.235,446.891,381.912,448.03,379.863,449.471C377.815,450.911,375.904,452.672,374.265,454.568C372.624,456.464,371.243,458.647,370.023,460.848C368.803,463.051,367.83,465.417,366.945,467.781C366.06,470.146,365.359,472.59,364.714,475.035C364.069,477.479,363.663,479.986,363.076,482.447C362.489,484.907,361.985,487.402,361.193,489.798C360.401,492.192,359.527,494.613,358.325,496.817C357.125,499.02,355.744,501.266,353.988,503.018C352.236,504.767,350.068,506.371,347.803,507.326C345.537,508.281,342.878,508.675,340.394,508.746C337.906,508.817,335.336,508.319,332.888,507.747C330.439,507.174,328.045,506.258,325.706,505.309C323.366,504.359,321.094,503.217,318.851,502.051C316.608,500.884,314.421,499.602,312.245,498.31C310.07,497.018,307.935,495.656,305.799,494.299C303.663,492.942,301.545,491.557,299.429,490.169C297.312,488.782,295.214,487.367,293.1,485.975C290.986,484.584,288.893,483.159,286.745,481.822C284.597,480.486,282.461,479.104,280.211,477.959C277.963,476.814,275.658,475.652,273.253,474.95C270.849,474.25,268.28,473.79,265.785,473.75C263.288,473.71,260.725,474.154,258.274,474.712C255.821,475.271,253.443,476.222,251.074,477.103C248.706,477.984,246.472,479.279,244.062,479.999C241.654,480.719,239.122,481.221,236.619,481.424C234.117,481.628,231.516,481.623,229.047,481.22C226.581,480.817,224.043,480.113,221.815,479.008C219.588,477.904,217.444,476.351,215.682,474.596C213.918,472.84,212.445,470.666,211.236,468.474C210.026,466.28,209.154,463.845,208.427,461.435C207.7,459.024,207.24,456.508,206.875,454.01C206.51,451.512,206.355,448.974,206.235,446.448C206.115,443.923,206.366,441.37,206.156,438.857C205.947,436.35,205.803,433.725,204.978,431.388C204.154,429.052,202.682,426.868,201.212,424.836C199.739,422.8,197.896,421.012,196.146,419.187C194.396,417.362,192.542,415.633,190.712,413.885C188.881,412.138,186.993,410.451,185.163,408.703C183.334,406.956,181.435,405.266,179.733,403.401C178.032,401.535,176.354,399.602,174.953,397.51C173.554,395.42,172.186,393.201,171.33,390.857C170.476,388.518,169.788,385.918,169.82,383.462C169.851,381.009,170.471,378.352,171.516,376.131C172.563,373.907,174.31,371.865,176.099,370.131C177.89,368.395,180.082,366.98,182.259,365.725C184.438,364.469,186.805,363.481,189.168,362.597C191.532,361.712,194.024,361.175,196.438,360.42C198.853,359.665,201.307,358.997,203.654,358.067C206,357.136,208.367,356.14,210.516,354.837C212.663,353.535,214.778,352.025,216.542,350.253C218.305,348.482,219.829,346.372,221.095,344.208C222.363,342.043,223.289,339.639,224.141,337.266C224.994,334.891,225.606,332.419,226.21,329.964C226.815,327.508,227.271,325.015,227.769,322.534C228.268,320.053,228.645,317.546,229.203,315.079C229.761,312.613,230.327,310.132,231.115,307.734C231.903,305.337,232.732,302.897,233.93,300.693C235.126,298.492,236.511,296.231,238.295,294.519C240.076,292.81,242.331,291.34,244.621,290.428C246.916,289.514,249.555,289.192,252.053,289.048C254.554,288.903,257.119,289.214,259.616,289.564C262.114,289.913,264.591,290.515,267.038,291.146C269.486,291.778,271.901,292.554,274.301,293.352C276.701,294.151,279.076,295.034,281.438,295.94C283.801,296.845,286.152,297.787,288.476,298.786C290.8,299.786,293.107,300.831,295.384,301.934C297.661,303.036,299.893,304.233,302.137,305.402C304.381,306.571,306.54,307.934,308.849,308.949C311.156,309.962,313.538,310.942,315.984,311.488C318.43,312.034,321.007,312.149,323.527,312.224C326.049,312.298,328.588,312.102,331.112,311.933C333.635,311.764,336.151,311.464,338.669,311.208C341.186,310.953,343.696,310.609,346.217,310.401C348.738,310.192,351.268,309.991,353.795,309.959C356.322,309.926,358.882,309.892,361.379,310.206C363.873,310.52,366.508,310.85,368.77,311.842C371.022,312.831,373.364,314.289,374.926,316.137C376.489,317.989,377.45,320.561,378.141,322.944C378.834,325.336,378.942,327.948,379.071,330.466C379.201,332.985,379.056,335.529,378.917,338.053C378.779,340.578,378.414,343.091,378.24,345.615C378.067,348.136,377.755,350.675,377.875,353.187C377.994,355.7,378.381,358.239,378.955,360.691C379.529,363.143,380.363,365.564,381.317,367.898C382.271,370.233,383.437,372.501,384.681,374.698C385.926,376.896,387.329,379.016,388.783,381.083C390.238,383.15,391.81,385.143,393.411,387.1C395.012,389.059,396.7,390.947,398.389,392.831C400.079,394.715,401.856,396.52,403.546,398.403C405.236,400.286,407.012,402.111,408.528,404.128C410.044,406.143,411.508,408.256,412.642,410.498C413.776,412.738,414.833,415.137,415.332,417.575C415.83,420.009,416.053,422.691,415.638,425.114C415.222,427.535,414.183,430.04,412.842,432.108C411.498,434.18,409.55,436.001,407.578,437.529C405.602,439.059,403.293,440.258,400.997,441.281C398.7,442.305,393.8,443.67,393.8,443.67"
      fill="white" stroke="white" stroke-width="2" transform="translate(-169.32 -270.54)" />
  </mask>
  <g>
    <image x="-30" y="0" width="500" height="500" href="https://img.tukuppt.com/png_preview/00/15/37/81G7bFVCJ2.jpg%21/fw/780"
      mask="url(#morphingMask)" />
    <!-- <circle cx="150" cy="150" r="80" fill="yellow" mask="url(#morphingMask)" /> -->
    <rect x="0" y="0" width="1000" height="1000" fill="#ffddaa" mask="url(#morphingMask)" />
  </g>
  <style>
  
  </style>
</svg>